HIERARCHY
ROOT root
{
	OFFSET 0.000000 0.000000 0.000000
	CHANNELS 6 Xposition Yposition Zposition Zrotation Yrotation Xrotation
	JOINT lhip
	{
		OFFSET 0.058581 -0.082280 -0.017664
		CHANNELS 3 Zrotation Yrotation Xrotation
		JOINT lknee
		{
			OFFSET 0.043451 -0.386469 0.008037
			CHANNELS 3 Zrotation Yrotation Xrotation
			JOINT lankle
			{
				OFFSET -0.014790 -0.426874 -0.037428
				CHANNELS 3 Zrotation Yrotation Xrotation
				JOINT ltoe
				{
					OFFSET 0.041054 -0.060286 0.122042
					CHANNELS 3 Zrotation Yrotation Xrotation
					End Site
					{
						OFFSET 0.000000 0.000000 0.000000
					}
				}
			}
		}
	}
	JOINT rhip
	{
		OFFSET -0.060310 -0.090513 -0.013543
		CHANNELS 3 Zrotation Yrotation Xrotation
		JOINT rknee
		{
			OFFSET -0.043257 -0.383688 -0.004843
			CHANNELS 3 Zrotation Yrotation Xrotation
			JOINT rankle
			{
				OFFSET 0.019056 -0.420046 -0.034562
				CHANNELS 3 Zrotation Yrotation Xrotation
				JOINT rtoe
				{
					OFFSET -0.034840 -0.062106 0.130323
					CHANNELS 3 Zrotation Yrotation Xrotation
					End Site
					{
						OFFSET 0.000000 0.000000 0.000000
					}
				}
			}
		}
	}
	JOINT lowerback
	{
		OFFSET 0.004439 0.124404 -0.038385
		CHANNELS 3 Zrotation Yrotation Xrotation
		JOINT upperback
		{
			OFFSET 0.004488 0.137956 0.026820
			CHANNELS 3 Zrotation Yrotation Xrotation
			JOINT chest
			{
				OFFSET -0.002265 0.056032 0.002855
				CHANNELS 3 Zrotation Yrotation Xrotation
				JOINT lowerneck
				{
					OFFSET -0.013390 0.211636 -0.033468
					CHANNELS 3 Zrotation Yrotation Xrotation
					JOINT upperneck
					{
						OFFSET 0.010113 0.088937 0.050410
						CHANNELS 3 Zrotation Yrotation Xrotation
						End Site
						{
							OFFSET 0.000000 0.000000 0.000000
						}
					}
				}
				JOINT lclavicle
				{
					OFFSET 0.071702 0.114000 -0.018898
					CHANNELS 3 Zrotation Yrotation Xrotation
					JOINT lshoulder
					{
						OFFSET 0.122921 0.045205 -0.019046
						CHANNELS 3 Zrotation Yrotation Xrotation
						JOINT lelbow
						{
							OFFSET 0.255332 -0.015649 -0.022946
							CHANNELS 3 Zrotation Yrotation Xrotation
							JOINT lwrist
							{
								OFFSET 0.265709 0.012698 -0.007375
								CHANNELS 3 Zrotation Yrotation Xrotation
								End Site
								{
									OFFSET 0.000000 0.000000 0.000000
								}
							}
						}
					}
				}
				JOINT rclavicle
				{
					OFFSET -0.082954 0.112472 -0.023707
					CHANNELS 3 Zrotation Yrotation Xrotation
					JOINT rshoulder
					{
						OFFSET -0.113228 0.046853 -0.008472
						CHANNELS 3 Zrotation Yrotation Xrotation
						JOINT relbow
						{
							OFFSET -0.260127 -0.014369 -0.031269
							CHANNELS 3 Zrotation Yrotation Xrotation
							JOINT rwrist
							{
								OFFSET -0.269108 0.006794 -0.006027
								CHANNELS 3 Zrotation Yrotation Xrotation
								End Site
								{
									OFFSET 0.000000 0.000000 0.000000
								}
							}
						}
					}
				}
			}
		}
	}
}
MOTION
Frames: 16
Frame Time: 0.033333
0.317891 0.166524 0.995986 88.153695 0.410208 90.992280 7.857830 5.045400 0.156508 -3.897098 -1.387806 -1.089191 -0.225383 7.626884 -2.740121 0.000000 -0.000000 0.000000 -6.359571 -3.994827 -3.387649 2.132186 -2.510659 3.706939 4.690321 -4.686827 -5.461391 0.000000 -0.000000 0.000000 -3.920536 3.409778 1.245455 1.584701 -2.240613 13.614723 0.645328 1.117483 -4.092746 3.705262 4.745080 6.198626 5.485819 0.040594 -5.445986 -25.103357 -5.383653 0.691789 -55.799237 -8.745903 16.911839 2.758978 -22.307277 7.542639 -5.882986 -13.932278 7.340977 26.467530 7.198156 8.614727 56.764931 7.190514 11.726495 -11.737254 26.161159 -7.266801 3.241562 9.250484 -5.021506 
0.318743 0.166075 0.996070 88.160450 0.313162 91.044890 7.776108 5.028851 0.250640 -3.913600 -1.424230 -1.252065 -0.223861 7.619000 -2.787022 0.000000 -0.000000 0.000000 -6.416977 -4.036570 -3.415000 2.091750 -2.438126 3.750945 4.630559 -4.709835 -5.478511 0.000000 -0.000000 0.000000 -4.114137 3.394988 0.868651 1.597594 -2.177843 13.825749 0.643060 1.173106 -4.122555 3.841942 4.732409 6.079163 5.424496 -0.054631 -5.087428 -24.900545 -5.534220 0.776659 -56.037318 -8.633581 16.811549 2.708482 -22.624560 7.312559 -6.016612 -13.347434 7.194087 26.251595 7.412641 8.924464 57.226298 7.103847 11.863069 -12.116069 25.997964 -7.783564 3.419151 9.224635 -5.131450 
0.319154 0.166005 0.996246 88.196992 0.298012 90.999296 7.734578 4.983380 0.325133 -3.887587 -1.446361 -1.250844 -0.188716 7.647052 -2.833260 0.000000 -0.000000 0.000000 -6.410005 -3.988284 -3.378024 2.048658 -2.443396 3.817157 4.625250 -4.775459 -5.493822 0.000000 -0.000000 0.000000 -4.093391 3.380675 0.851846 1.564843 -2.127165 13.759491 0.622414 1.168786 -4.112721 3.911218 4.737093 6.071185 5.409900 -0.043147 -4.967474 -24.859037 -5.532496 0.804561 -56.162104 -8.635567 16.845602 2.747741 -22.604458 7.358641 -6.007989 -13.443857 7.197237 26.134450 7.494082 9.017954 57.441267 6.981088 11.955597 -12.210994 25.931379 -7.872847 3.326187 9.280485 -5.314698 
0.319912 0.166121 0.996321 88.292500 0.280813 90.910224 7.714522 4.932972 0.464362 -3.880845 -1.488850 -1.268464 -0.190145 7.621532 -2.825609 0.000000 -0.000000 0.000000 -6.429341 -3.996311 -3.224492 2.010352 -2.464676 3.839543 4.631980 -4.806302 -5.552744 0.000000 -0.000000 0.000000 -4.074418 3.358282 0.781547 1.536495 -2.154488 13.731294 0.604250 1.159994 -4.047616 4.015172 4.799653 5.950093 5.361882 -0.058274 -4.733001 -24.859851 -5.451845 0.749429 -56.272049 -8.660833 16.856006 2.719152 -22.532833 7.447507 -5.742624 -13.368633 7.172474 26.073157 7.406107 8.948526 57.583149 6.921008 12.011851 -12.253965 25.879640 -7.804963 3.266449 9.267601 -5.312513 
0.320089 0.166188 0.996316 88.308897 0.277079 90.922305 7.704428 4.901323 0.473798 -3.879981 -1.498928 -1.288389 -0.173059 7.625148 -2.851544 0.000000 -0.000000 0.000000 -6.442182 -3.980682 -3.234133 2.017475 -2.486088 3.863620 4.629342 -4.823599 -5.561095 0.000000 -0.000000 0.000000 -4.058756 3.349059 0.690170 1.515208 -2.159603 13.787415 0.577919 1.183795 -4.097690 4.041695 4.846753 6.007490 5.395123 -0.065094 -4.750791 -24.818619 -5.458146 0.730821 -56.335839 -8.622204 16.901050 2.715142 -22.483775 7.395956 -6.063828 -13.413316 7.224474 25.999007 7.552726 9.037665 57.736531 6.844285 12.054656 -12.363311 25.802805 -8.010296 3.288778 9.365864 -5.326916 
0.320461 0.166310 0.996306 88.361118 0.283404 90.922719 7.714457 4.859600 0.517014 -3.893490 -1.501758 -1.334043 -0.159630 7.614485 -2.876259 0.000000 -0.000000 0.000000 -6.456289 -4.020528 -3.193075 2.038029 -2.514496 3.853759 4.631333 -4.797990 -5.562601 0.000000 -0.000000 0.000000 -4.049322 3.358075 0.559424 1.516533 -2.178047 13.761735 0.573342 1.135526 -4.113254 4.085415 4.870944 6.073848 5.370888 -0.022638 -4.658900 -24.865411 -5.412854 0.790917 -56.360128 -8.589041 16.877905 2.764096 -22.490213 7.361664 -6.113078 -13.437963 7.167253 25.956850 7.517058 9.066493 57.844222 6.822165 12.101376 -12.414570 25.778510 -7.979815 3.260268 9.441928 -5.360146 
0.321037 0.166464 0.996286 88.413078 0.279076 90.893194 7.716950 4.870447 0.629658 -3.910411 -1.526033 -1.440292 -0.162498 7.580940 -2.826123 0.000000 -0.000000 0.000000 -6.473957 -4.061266 -3.067782 2.032209 -2.526690 3.773838 4.640330 -4.772752 -5.565227 0.000000 -0.000000 0.000000 -4.043777 3.381942 0.401497 1.526223 -2.176042 13.792465 0.582334 1.092921 -4.097628 4.048266 4.877916 6.112717 5.305871 -0.021515 -4.716778 -24.915833 -5.411884 0.836836 -56.357444 -8.570750 16.841409 2.801768 -22.531775 7.351157 -5.736437 -13.374904 7.088524 25.918834 7.463980 9.075167 57.896988 6.803175 12.091080 -12.414258 25.841588 -7.903318 3.054828 9.391963 -5.398056 
0.321719 0.166573 0.996271 88.429454 0.254697 90.862055 7.690130 4.842711 0.798094 -3.905324 -1.566585 -1.603113 -0.159964 7.581279 -2.834736 0.000000 -0.000000 0.000000 -6.506504 -4.045520 -2.917755 2.017442 -2.535387 3.655888 4.678750 -4.786879 -5.566429 0.000000 -0.000000 0.000000 -4.072029 3.372597 0.224612 1.519215 -2.146024 13.798332 0.588502 1.051894 -4.024795 4.121391 5.041008 6.085946 5.261648 0.094366 -4.638410 -24.890644 -5.358539 0.849470 -56.380410 -8.544972 16.799858 2.759396 -22.500864 7.377211 -6.188016 -13.348384 7.009014 25.909154 7.447372 9.115921 57.922101 6.876178 12.122236 -12.465280 25.820554 -7.910496 3.268328 9.376581 -5.446361 
0.322264 0.166774 0.996257 88.456399 0.235401 90.871323 7.662805 4.878373 0.877650 -3.918159 -1.591876 -1.720997 -0.172221 7.579948 -2.811294 0.000000 -0.000000 0.000000 -6.548234 -4.019961 -2.806573 2.029410 -2.526281 3.503833 4.676832 -4.819756 -5.556138 0.000000 -0.000000 0.000000 -4.089977 3.321597 -0.009162 1.489105 -2.151155 13.881867 0.569074 1.084088 -4.035590 4.291343 5.347854 6.052622 5.231094 0.391835 -4.371663 -24.897004 -5.322702 0.858527 -56.382591 -8.510476 16.794309 2.898099 -22.500456 7.374898 -6.227913 -13.380512 7.157001 25.907995 7.434015 9.170652 57.953393 6.948237 12.141120 -12.481708 25.854043 -8.015966 3.305365 9.428273 -5.502361 
0.322788 0.166900 0.996155 88.485260 0.262217 90.881847 7.701833 4.906887 0.999436 -3.961184 -1.599426 -1.926652 -0.106028 7.521513 -2.781280 0.000000 -0.000000 0.000000 -6.528131 -4.052031 -2.745173 2.027030 -2.510336 3.440624 4.697394 -4.801624 -5.587329 0.000000 -0.000000 0.000000 -4.169178 3.320405 -0.175526 1.571514 -2.205340 13.767365 0.661546 1.036362 -3.877987 4.462668 5.885295 5.890194 5.066283 1.035193 -4.112778 -25.053532 -5.080330 0.806181 -56.303149 -8.622302 16.632242 2.800216 -22.493190 7.810760 -6.137833 -13.284793 7.100649 26.210212 6.775432 8.875722 57.573555 7.249593 11.997509 -12.415788 26.047124 -7.349098 3.642349 9.142392 -5.350470 
0.323439 0.167027 0.996095 88.499772 0.244772 90.897902 7.671518 4.858418 1.193600 -3.965742 -1.663927 -2.253907 -0.087881 7.572876 -2.740988 0.000000 -0.000000 0.000000 -6.559378 -4.039754 -2.659063 2.022245 -2.560721 3.329073 4.726050 -4.790294 -5.612119 0.000000 -0.000000 0.000000 -4.179904 3.323879 -0.376515 1.521456 -2.193279 13.808319 0.676323 1.063109 -3.986574 4.611302 6.579804 5.983201 5.116121 1.749982 -3.919114 -25.047267 -5.201949 0.944520 -56.262499 -8.519342 16.530413 2.805108 -22.466038 7.698835 -6.071966 -13.310617 6.964631 26.157989 6.958894 9.120359 57.612745 7.219732 12.024329 -12.384106 25.957515 -7.518392 3.525905 9.252479 -5.507599 
0.324085 0.167163 0.996029 88.528966 0.210273 90.929374 7.633078 4.797692 1.344302 -3.971937 -1.679686 -2.533575 -0.110409 7.578117 -2.687151 0.000000 -0.000000 0.000000 -6.612114 -4.062924 -2.560691 2.018867 -2.585825 3.170454 4.791951 -4.749560 -5.607639 0.000000 -0.000000 0.000000 -4.237341 3.310209 -0.579547 1.491030 -2.200574 13.847087 0.703820 1.040330 -4.044920 4.846162 7.425349 5.942043 5.115443 2.494716 -3.583076 -25.039374 -5.172540 0.965855 -56.231040 -8.454016 16.444036 2.832717 -22.441944 7.754520 -5.977522 -13.382099 6.938353 26.234369 6.927758 9.273243 57.567580 7.349873 12.048584 -12.395866 25.898515 -7.660172 3.387957 9.262288 -5.432828 
0.324673 0.167231 0.995961 88.525487 0.208998 90.914072 7.630873 4.825601 1.529449 -3.989841 -1.677863 -2.806502 -0.121598 7.548516 -2.663385 0.000000 -0.000000 0.000000 -6.643282 -4.086672 -2.487645 2.045279 -2.574737 3.109271 4.832414 -4.722853 -5.611812 0.000000 -0.000000 0.000000 -4.273241 3.278841 -0.669902 1.494341 -2.182559 13.688420 0.771685 1.040741 -3.944380 4.994782 8.127323 5.896244 4.970932 3.366694 -3.326725 -25.097684 -5.110275 0.969033 -56.206982 -8.478991 16.320164 2.841032 -22.413525 8.032374 -5.298636 -13.407266 6.891075 26.374487 6.595253 9.263322 57.396532 7.618051 11.950024 -12.301162 25.882388 -7.311647 3.225458 9.162367 -5.306117 
0.325408 0.167257 0.995940 88.487239 0.218160 90.906995 7.646149 4.819653 1.694471 -4.019881 -1.670380 -3.024431 -0.123520 7.545414 -2.650843 0.000000 -0.000000 0.000000 -6.654834 -4.085501 -2.417509 2.065273 -2.538820 3.043850 4.864233 -4.709795 -5.608214 0.000000 -0.000000 0.000000 -4.303565 3.283261 -0.891165 1.491041 -2.150645 13.772620 0.812146 1.055740 -3.905855 5.187462 8.947009 5.759053 4.872047 4.136115 -2.982938 -25.085292 -5.101175 0.962742 -56.224345 -8.492958 16.219205 2.832095 -22.428560 8.113801 -5.114029 -13.356731 6.815246 26.423305 6.495075 9.386219 57.332802 7.826853 11.918248 -12.306105 25.830361 -7.367015 3.178593 9.122343 -5.329012 
0.325943 0.167440 0.995894 88.481072 0.235744 90.953491 7.673648 4.800681 1.768135 -4.066764 -1.684312 -3.181732 -0.108452 7.599818 -2.665362 0.000000 -0.000000 0.000000 -6.638238 -4.076028 -2.478583 2.043680 -2.535996 3.117705 4.877006 -4.718638 -5.662780 0.000000 -0.000000 0.000000 -4.291028 3.248014 -1.084807 1.449126 -2.118770 13.856661 0.793381 1.096696 -4.036913 5.315258 9.586278 5.830617 4.957590 4.676141 -2.721392 -24.970504 -5.153970 1.022877 -56.305464 -8.361545 16.230643 2.885110 -22.515041 8.043999 -4.964652 -13.316499 6.750328 26.312719 6.696392 9.673785 57.514886 7.841639 12.003337 -12.328369 25.713345 -7.668675 2.929759 9.213296 -5.515433 
0.326399 0.167789 0.995957 88.503844 0.223901 90.931764 7.643242 4.761552 1.833538 -4.081059 -1.706142 -3.213078 -0.067081 7.621533 -2.691549 0.000000 -0.000000 0.000000 -6.654273 -4.070763 -2.491011 1.991836 -2.567655 3.233345 4.904670 -4.721558 -5.724618 0.000000 -0.000000 0.000000 -4.321635 3.272736 -1.161575 1.441260 -2.125651 13.903032 0.824919 1.076861 -4.114490 5.370848 10.177511 6.007209 5.044866 5.267426 -2.609087 -24.955802 -5.148862 1.064216 -56.351751 -8.298429 16.151753 2.923149 -22.582920 8.083947 -5.537444 -13.348492 6.738419 26.335324 6.710857 9.782546 57.529791 7.837806 11.967598 -12.408994 25.718683 -7.702630 3.211568 9.301189 -5.473502 
